# xmcd CD database file
#
# Track frame offsets:
#	150
#	23393
#	52809
#	332550
#
# Disc length: 4440 seconds
#
# Revision: 2
# Processed by: cddbd v1.5.1PL0 Copyright (c) Steve Scherf et al.
# Submitted via: CDex 1.51
#
DISCID=21115604
DTITLE=I WiSH - 約束の日
DYEAR=2004
DGENRE=JPop
TTITLE0=約束の日
TTITLE1=あなたが旅立ったあの春のにおい
TTITLE2=No MUSIC(Fuck CCCD!)
TTITLE3=No MUSIC(Fuck CCCD!)
EXTD=YEAR: 2004
EXTT0=
EXTT1=
EXTT2=
EXTT3=
PLAYORDER=
